<?xml version="1.0" standalone="no"?>
<!DOCTYPE svg PUBLIC "-//W3C//DTD SVG 20010904//EN"
 "http://www.w3.org/TR/2001/REC-SVG-20010904/DTD/svg10.dtd">
<svg version="1.0" xmlns="http://www.w3.org/2000/svg"
 width="259.000000pt" height="259.000000pt" viewBox="0 0 259.000000 259.000000"
 preserveAspectRatio="xMidYMid meet">
<metadata>
Created by potrace 1.11, written by Peter Selinger 2001-2013
</metadata>
<g transform="translate(0.000000,259.000000) scale(0.100000,-0.100000)"
fill="#000000" stroke="none">
<path d="M1428 2585 c-2 -1 -27 -5 -56 -9 -28 -3 -67 -8 -85 -11 -30 -4 -227
-30 -307 -40 -19 -2 -57 -7 -85 -10 -27 -3 -61 -8 -75 -10 -14 -2 -43 -7 -65
-9 -98 -13 -212 -27 -231 -31 -11 -1 -52 -6 -90 -10 -140 -15 -137 -21 106
-275 81 -84 80 -83 29 -75 -110 18 -209 9 -292 -24 -15 -6 -41 -13 -57 -16
-45 -8 -158 -65 -192 -97 -29 -27 -30 -30 -14 -47 9 -9 16 -23 16 -29 0 -7 7
-12 15 -12 8 0 14 -6 12 -12 -4 -23 36 -7 99 38 66 46 114 97 114 119 0 25 98
49 195 49 94 -1 205 -25 226 -50 9 -11 -7 -50 -70 -175 -45 -88 -79 -164 -76
-169 3 -5 -16 -23 -42 -41 -106 -71 -207 -173 -271 -274 -32 -51 -84 -174
-105 -248 -18 -68 -22 -107 -21 -227 0 -129 3 -155 28 -235 120 -391 452 -641
851 -639 127 1 236 21 322 60 17 8 35 14 40 14 10 0 132 72 166 98 12 9 58 53
102 97 162 162 244 356 250 592 3 98 6 117 28 155 41 69 167 311 167 319 0 8
34 16 105 24 28 3 61 8 75 10 14 3 48 7 75 11 28 3 97 12 154 20 58 8 105 14
107 14 1 0 4 9 7 19 5 22 -10 47 -57 96 -17 18 -65 68 -106 112 -41 43 -149
157 -240 252 -236 248 -240 253 -400 421 -243 256 -240 253 -306 256 -23 1
-44 1 -46 -1z"/>
</g>
</svg>
